<svg xmlns="http://www.w3.org/2000/svg" viewBox="0 0 19.89 19.89"><defs><style>.cls-1,.cls-3{fill:none;}.cls-1{stroke:#231f20;stroke-linecap:round;stroke-linejoin:round;}.cls-2{fill:#231f20;}</style></defs><title>LOGO 5</title><g id="Layer_2" data-name="Layer 2"><g id="Layer_1-2" data-name="Layer 1"><path class="cls-1" d="M4.41,8H2.49v7.47a1.2,1.2,0,0,0,2.16,0v-10H17.49v8.36a4.18,4.18,0,0,1-.11,1.62,1.43,1.43,0,0,1-1.38.7H4"/><path class="cls-2" d="M6.63,8.27V9.46a.54.54,0,0,0,.54.54l2.64,0a.54.54,0,0,0,.54-.54V8.27a.54.54,0,0,0-.54-.54H7.17A.54.54,0,0,0,6.63,8.27Z"/><line class="cls-1" x1="11.58" y1="7.88" x2="15.6" y2="7.88"/><line class="cls-1" x1="11.58" y1="9.8" x2="15.6" y2="9.8"/><line class="cls-1" x1="6.48" y1="11.63" x2="15.6" y2="11.63"/><line class="cls-1" x1="6.24" y1="13.7" x2="15.36" y2="13.7"/><rect class="cls-3" width="19.89" height="19.89"/></g></g></svg>