<svg xmlns="http://www.w3.org/2000/svg" viewBox="0 0 19.91 19.91"><defs><style>.cls-1,.cls-2,.cls-3,.cls-4{fill:none;}.cls-1,.cls-2,.cls-3{stroke:#231f20;}.cls-1{stroke-linecap:round;stroke-linejoin:round;}.cls-2,.cls-3{stroke-miterlimit:10;}.cls-3{stroke-width:0.5px;}</style></defs><title>LOGO 2</title><g id="Layer_2" data-name="Layer 2"><g id="Layer_1-2" data-name="Layer 1"><polyline class="cls-1" points="1.16 2.16 3.62 2.7 7.69 12.33 17.32 11.52 18.2 4.92 4.79 5.11"/><path class="cls-1" d="M7.53,12.43,6.19,13.77s-1.05,1.44.95,1.37h10"/><circle class="cls-2" cx="7.3" cy="16.5" r="1.08"/><circle class="cls-2" cx="15.76" cy="16.5" r="1.08"/><path class="cls-3" d="M6.85,4.19a1.8,1.8,0,0,1,.07-.89c.14-.31.36-.26.64-.24a15,15,0,0,0,1.64,0l1.54,0s.6-.11.58,1.17"/><path class="cls-3" d="M8.49,2.9V1.47S8.43,1,9.07,1l5.13.06s.35,0,.35.88"/><path class="cls-3" d="M12.36,4.19V2.5s0-.43.8-.41l2.7.07s.31-.06.31.49V4.26"/><rect class="cls-4" width="19.91" height="19.91"/></g></g></svg>