<svg xmlns="http://www.w3.org/2000/svg" viewBox="0 0 20.1 20.1"><defs><style>.cls-1,.cls-3{fill:none;}.cls-1{stroke:#231f20;stroke-linecap:round;stroke-linejoin:round;}.cls-2{fill:#231f20;}</style></defs><title>LOGO 3</title><g id="Layer_2" data-name="Layer 2"><g id="Layer_1-2" data-name="Layer 1"><path class="cls-1" d="M15.38,9.46a4.4,4.4,0,0,1,0,.64,5.18,5.18,0,1,1-5.18-5.18,3.71,3.71,0,0,1,.94.1"/><path class="cls-1" d="M16.8,8.05a6.59,6.59,0,0,1,.3,2,7,7,0,1,1-4.81-6.66"/><path class="cls-2" d="M13.72,5.19a2.57,2.57,0,0,1-1.07,0A.55.55,0,0,1,12.39,5a.44.44,0,0,1-.05-.43,1.15,1.15,0,0,1,.25-.37l2-2.26c.1-.11.23-.24.38-.21a.44.44,0,0,1,.23.17l.5.58,1.53,1.82c.16.18.41.56.14.76a.48.48,0,0,1-.31.08l-.9.06V7.63c0,.13,0,.28-.12.34a.46.46,0,0,1-.21,0l-1.66.05A.44.44,0,0,1,13.81,8a.45.45,0,0,1-.11-.35C13.69,6.84,13.7,6,13.72,5.19Z"/><path class="cls-1" d="M11.89,9.11S12,7.84,10.05,7.78c0,0-1.81-.07-1.84,1.19,0,0-.05.84,1.42,1.13a10.1,10.1,0,0,1,1.21.18c.78.23,1.09.7.9,1.24,0,0-.05.91-1.69.93,0,0-1.78-.09-1.84-1.35"/><line class="cls-1" x1="10.05" y1="12.58" x2="10.05" y2="13.39"/><line class="cls-1" x1="10.05" y1="7.63" x2="10.05" y2="6.81"/><rect class="cls-3" width="20.1" height="20.1"/></g></g></svg>