<svg xmlns="http://www.w3.org/2000/svg" viewBox="0 0 19.99 19.99"><defs><style>.cls-1,.cls-2,.cls-4,.cls-5,.cls-6,.cls-7{fill:none;}.cls-1,.cls-2,.cls-4,.cls-5,.cls-6{stroke:#34469d;}.cls-1,.cls-2,.cls-4{stroke-miterlimit:10;}.cls-2,.cls-6{stroke-width:0.25px;}.cls-3{fill:#34469d;}.cls-4,.cls-5{stroke-width:0.5px;}.cls-5,.cls-6{stroke-linecap:round;stroke-linejoin:round;}</style></defs><title>Logo 2</title><g id="Layer_2" data-name="Layer 2"><g id="Layer_1-2" data-name="Layer 1"><path class="cls-1" d="M7.16,12.76A5.47,5.47,0,0,1,1.55,7.53,5.51,5.51,0,0,1,7.27,2.28a5.62,5.62,0,0,1,5.58,4.14"/><path class="cls-1" d="M10.78,6.87,6,14.71s-.5.39.77,1l5.89,3.17s.58.59,1.52-1.16l4.18-6.64L17.12,6.59s-.12-1-1.56-.75Z"/><path class="cls-2" d="M7.83,11.67a4.35,4.35,0,0,1-.63,0A4.39,4.39,0,0,1,2.64,7.52,4.38,4.38,0,0,1,7.2,3.34a4.51,4.51,0,0,1,4.48,3.33"/><path class="cls-3" d="M14.54,8.19a.65.65,0,0,1,.69.59.7.7,0,0,1-1.39,0,.65.65,0,0,1,.7-.59m0-.5a1.15,1.15,0,0,0-1.2,1.09,1.2,1.2,0,0,0,2.39,0,1.15,1.15,0,0,0-1.19-1.09Z"/><path class="cls-4" d="M15.33,8.78A4.84,4.84,0,0,1,14.12,5.7a8.17,8.17,0,0,1,0-1.85c.09-.81.06-2.11.82-2.66s1.24.66,1.41,1.19a11.68,11.68,0,0,1,.26,3.28"/><line class="cls-5" x1="11.22" y1="9.03" x2="13.93" y2="10.44"/><line class="cls-5" x1="10.64" y1="10" x2="15.35" y2="12.46"/><line class="cls-5" x1="10.07" y1="10.97" x2="14.78" y2="13.44"/><line class="cls-5" x1="9.49" y1="11.92" x2="14.2" y2="14.39"/><path class="cls-3" d="M8.93,13.24l4.23,2.23-.81,1.29L8.13,14.52l.8-1.28m-.17-.66L7.41,14.71l5.11,2.71,1.35-2.14-5.11-2.7Z"/><path class="cls-6" d="M8.45,6.86s.08-.9-1.29-.94c0,0-1.28,0-1.3.84,0,0,0,.59,1,.8.28.05.57,0,.86.12.55.17.76.5.63.88,0,0,0,.64-1.19.65,0,0-1.26-.06-1.3-1"/><line class="cls-6" x1="7.16" y1="9.31" x2="7.16" y2="9.88"/><line class="cls-6" x1="7.16" y1="5.82" x2="7.16" y2="5.24"/><rect class="cls-7" width="19.99" height="19.99"/></g></g></svg>