<svg xmlns="http://www.w3.org/2000/svg" viewBox="0 0 20.09 20.09"><defs><style>.cls-1,.cls-2,.cls-3{fill:none;}.cls-1,.cls-2{stroke:#34469d;}.cls-1{stroke-miterlimit:10;}.cls-2{stroke-linecap:round;stroke-linejoin:round;stroke-width:0.75px;}</style></defs><title>Logo 4</title><g id="Layer_2" data-name="Layer 2"><g id="Layer_1-2" data-name="Layer 1"><path class="cls-1" d="M8.76,4.27s1.1,12.11,2.75,14.89l7.59-2.42a35.92,35.92,0,0,1-1.65-5.4,39.09,39.09,0,0,1-.89-9.55Z"/><path class="cls-1" d="M10.05,14a16.39,16.39,0,0,1-1.3,4.41L1.22,16a37.44,37.44,0,0,0,1.64-5.39,40.19,40.19,0,0,0,.88-9.55l7.53,2.41"/><line class="cls-2" x1="10.41" y1="7.56" x2="14.86" y2="6.03"/><line class="cls-2" x1="10.65" y1="9.75" x2="15.1" y2="8.22"/><line class="cls-2" x1="11.05" y1="11.98" x2="13.75" y2="11.03"/><line class="cls-2" x1="11.67" y1="14.14" x2="13.09" y2="13.7"/><line class="cls-2" x1="5.02" y1="6.52" x2="7.94" y2="6.52"/><line class="cls-2" x1="5.02" y1="9.28" x2="7.94" y2="9.28"/><line class="cls-2" x1="5.02" y1="12.45" x2="7.17" y2="12.45"/><rect class="cls-3" width="20.09" height="20.09"/></g></g></svg>