<svg xmlns="http://www.w3.org/2000/svg" viewBox="0 0 20.24 20"><defs><style>.cls-1,.cls-2,.cls-3{fill:none;}.cls-2,.cls-3{stroke:#34469d;}.cls-2{stroke-linecap:round;stroke-linejoin:round;}.cls-3{stroke-miterlimit:10;}.cls-4{fill:#34469d;}</style></defs><title>Logo 3</title><g id="Layer_2" data-name="Layer 2"><g id="Layer_1-2" data-name="Layer 1"><rect class="cls-1" x="0.12" width="20" height="20"/><path class="cls-2" d="M4.09,17.52s-.81.59-1.12-1.29L1.28,6.77a1.09,1.09,0,0,1,.89-1.45l9.1-3.14"/><path class="cls-2" d="M12.49,1.85l2.1-.8a.55.55,0,0,1,.86.4l.91,5.13"/><line class="cls-3" x1="1.67" y1="7.45" x2="15.53" y2="2.55"/><line class="cls-2" x1="2.14" y1="10.19" x2="4.04" y2="9.57"/><line class="cls-2" x1="12.38" y1="6.58" x2="15.97" y2="5.29"/><path class="cls-3" d="M4.33,7.32a1.28,1.28,0,0,0,0,.19V18a1.3,1.3,0,0,0,.15.74.92.92,0,0,0,.81.28l12.88,0A.93.93,0,0,0,18.6,19c.61-.33.37-1.61.37-2.2V7.53a1.13,1.13,0,0,0-.05-.41c-.13-.29-.48-.33-.76-.34H5A.64.64,0,0,0,4.44,7,.64.64,0,0,0,4.33,7.32Z"/><line class="cls-2" x1="8.12" y1="16.86" x2="17.58" y2="17.01"/><line class="cls-2" x1="5.62" y1="16.93" x2="6.98" y2="16.93"/><line class="cls-2" x1="5.34" y1="15.6" x2="11.53" y2="15.6"/><ellipse class="cls-4" cx="14.04" cy="10.7" rx="1.18" ry="1.36"/><ellipse class="cls-4" cx="15.71" cy="10.7" rx="1.18" ry="1.36"/><rect class="cls-1" width="20.24" height="20"/></g></g></svg>