<svg xmlns="http://www.w3.org/2000/svg" viewBox="0 0 20 20"><defs><style>.cls-1,.cls-2,.cls-3{fill:none;}.cls-1,.cls-2{stroke:#34469d;}.cls-1{stroke-linecap:round;stroke-linejoin:round;}.cls-2{stroke-miterlimit:10;}</style></defs><title>Logo 6</title><g id="Layer_2" data-name="Layer 2"><g id="Layer_1-2" data-name="Layer 1"><polygon class="cls-1" points="4.49 5.77 2 5.77 2 1.16 12.47 1.02 12.47 5.77 4.49 5.77"/><polyline class="cls-2" points="4.59 5.94 4.59 17.92 6.98 17.92 7.59 17.92 8.45 17.92"/><line class="cls-1" x1="5.04" y1="1.12" x2="5.04" y2="4.19"/><line class="cls-1" x1="9.43" y1="1.28" x2="9.43" y2="4.19"/><polyline class="cls-1" points="4.85 6.71 10.01 8.22 10.01 6.71"/><line class="cls-1" x1="4.85" y1="8.71" x2="8.59" y2="9.84"/><line class="cls-1" x1="4.85" y1="10.61" x2="7.59" y2="11.44"/><line class="cls-1" x1="4.85" y1="12.61" x2="6.72" y2="13.22"/><line class="cls-1" x1="4.85" y1="14.77" x2="6.52" y2="15.13"/><line class="cls-1" x1="4.85" y1="16.54" x2="8.1" y2="17.58"/><polyline class="cls-1" points="16.03 17.55 15.07 19.12 9.33 19.12 6.36 14.36 9.2 9.45 14.65 9.45 18 14.17 16.74 16.26"/><ellipse class="cls-1" cx="12.18" cy="14.28" rx="2.92" ry="2.78"/><rect class="cls-3" width="20" height="20"/></g></g></svg>