<svg xmlns="http://www.w3.org/2000/svg" viewBox="0 0 20 20"><defs><style>.cls-1,.cls-2,.cls-4{fill:none;}.cls-1,.cls-2{stroke:#34469d;stroke-linecap:round;}.cls-1{stroke-miterlimit:10;}.cls-2{stroke-linejoin:round;}.cls-3{fill:#34469d;}</style></defs><title>Logo 1</title><g id="Layer_2" data-name="Layer 2"><g id="Layer_1-2" data-name="Layer 1"><path class="cls-1" d="M1.18,3.38s3-.85,3.67,2.08c.63,2.71,1.46,5.39,2.28,8.06.38,1.22,2,1.22,3.14,1.22H17.4"/><path class="cls-2" d="M6.67,12H16.81s.68.21,1.06-1.43l1.18-4.83H16.7"/><line class="cls-2" x1="5.15" y1="5.74" x2="7.21" y2="5.74"/><line class="cls-2" x1="9.15" y1="9" x2="9.15" y2="10.08"/><line class="cls-2" x1="11.72" y1="9" x2="11.72" y2="10.08"/><line class="cls-2" x1="14.25" y1="9" x2="14.25" y2="10.08"/><ellipse class="cls-3" cx="8.83" cy="17.49" rx="1.41" ry="1.36"/><ellipse class="cls-3" cx="15.43" cy="17.49" rx="1.41" ry="1.36"/><polyline class="cls-2" points="9.15 4.36 11.91 6.77 14.76 4.36"/><line class="cls-2" x1="11.91" y1="6.77" x2="11.96" y2="1.02"/><rect class="cls-4" width="20" height="20"/></g></g></svg>